<svg width="59" height="17" viewBox="0 0 59 17" fill="none" xmlns="http://www.w3.org/2000/svg">
<path fill-rule="evenodd" clip-rule="evenodd" d="M34.7091 0.00770945C32.6243 -0.0965844 31.3828 0.854488 31.3828 3.03176V13.8476C31.3828 16.1462 32.5075 17.0921 34.7091 16.993C36.864 16.8964 37.9881 16.0496 37.9881 13.606V3.28093C37.9881 0.951073 36.9711 0.121442 34.7091 0.00770945ZM26.6187 0.0995761C26.2277 0.0995761 24.8015 0.150228 23.4898 0.230296V16.7655C23.9346 16.7897 25.1056 16.8527 25.738 16.8698V11.2543L26.6187 11.2529C28.9755 11.2458 29.9541 10.1546 29.9541 8.05438V3.1823C29.9541 1.12631 28.8537 0.100361 26.6187 0.100361V0.0995761ZM19.4846 13.2771C19.4846 13.9305 19.267 14.3443 18.4775 14.2452C17.702 14.1479 17.4937 13.8093 17.4937 13.035V0.750664C16.9788 0.808396 15.8311 0.972938 15.3394 1.04593V13.4706C15.3394 15.4545 16.2714 16.2264 18.4777 16.4876C20.4963 16.7268 21.7335 15.6726 21.7335 13.4706V0.343713C21.312 0.36841 19.9296 0.489221 19.4848 0.537986L19.4846 13.2771ZM44.2301 9.21766L41.7356 0.810756C41.0562 0.718889 40.2368 0.624506 39.6039 0.563943V16.4316C40.0491 16.3885 41.1831 16.2552 41.7682 16.1775L41.5905 6.82755L44.2301 15.8121C44.7919 15.7207 45.6114 15.5728 46.1506 15.4666V1.5243C45.5888 1.41056 44.5669 1.23139 44.0753 1.15463L44.2301 9.21766ZM11.1722 2.03994C10.4578 2.03994 9.42708 2.25797 7.563 2.85306V14.1406C9.20206 14.6537 10.4579 14.9537 11.1722 14.9537C12.8186 14.9537 13.7467 13.9131 13.7467 12.2438V4.74938C13.7467 3.08052 12.8186 2.03994 11.1722 2.03994ZM47.2632 3.96333C47.8201 4.0662 48.3685 4.18041 48.9028 4.30169V14.8524C49.3944 14.7334 50.3083 14.4871 50.917 14.3008V4.79988C51.5014 4.95671 52.0524 5.11307 52.557 5.26236V3.22808C50.9665 2.65422 49.2592 2.1875 47.2634 1.75727L47.2632 3.96333ZM35.7162 13.6543C35.7162 14.3078 35.5055 14.6466 34.7091 14.6702C33.8897 14.6949 33.667 14.3318 33.667 13.6543V3.34637C33.667 2.6687 33.8897 2.29352 34.7091 2.31806C35.5055 2.34229 35.7162 2.69292 35.7162 3.34637V13.6543ZM11.7089 11.9537C11.7089 12.6071 11.3289 12.8245 10.8746 12.8245C10.521 12.8245 9.97562 12.6919 9.53082 12.5658V4.42281C9.97562 4.30153 10.5212 4.16877 10.8746 4.16877C11.3287 4.16877 11.7089 4.38632 11.7089 5.03914V11.9537ZM54.9736 4.22901C57.5317 5.47519 59 6.92618 59 8.47235C59 10.0355 57.5319 11.494 54.9736 12.7497V4.22901ZM0 8.47235C0 10.0331 1.46665 11.4945 4.02398 12.7473V4.23185C1.46681 5.47519 0 6.92666 0 8.47235ZM27.6822 7.88009C27.6822 8.59174 27.4413 8.95244 26.5275 8.9548L25.738 8.95669V2.43227C26.0895 2.41339 26.2765 2.40804 26.488 2.40804C27.4757 2.40804 27.6822 2.79517 27.6822 3.52066V7.88009Z" fill="white"/>
</svg>
