<svg width="60" height="18" viewBox="0 0 60 18" fill="none" xmlns="http://www.w3.org/2000/svg">
<path fill-rule="evenodd" clip-rule="evenodd" d="M35.2974 0.00816295C33.1773 -0.102266 31.9148 0.904752 31.9148 3.2101V14.6622C31.9148 17.096 33.0584 18.0975 35.2974 17.9926C37.4888 17.8903 38.6319 16.9937 38.6319 14.4064V3.47393C38.6319 1.00702 37.5978 0.128418 35.2974 0.00799521V0.00816295ZM27.0699 0.105434C26.6722 0.105434 25.2219 0.159065 23.8879 0.243843V17.7517C24.3402 17.7774 25.5311 17.844 26.1742 17.8622V11.9163L27.0699 11.9148C29.4666 11.9073 30.4618 10.7519 30.4618 8.52817V3.3695C30.4618 1.19257 29.3427 0.106265 27.0699 0.106265V0.105266V0.105434ZM19.8149 14.0581C19.8149 14.75 19.5936 15.188 18.7907 15.0831C18.002 14.9802 17.7902 14.6216 17.7902 13.8018V0.794821C17.2665 0.855949 16.0994 1.03017 15.5994 1.10745V14.263C15.5994 16.3636 16.5472 17.1809 18.7909 17.4574C20.8437 17.7108 22.1019 16.5945 22.1019 14.263V0.363931C21.6732 0.390081 20.2674 0.517999 19.8151 0.569632V14.0583L19.8149 14.0581ZM44.9798 9.75988L42.4429 0.858448C41.7521 0.761177 40.9188 0.661241 40.2751 0.597116V17.3981C40.7279 17.3525 41.8811 17.2114 42.4761 17.1291L42.2955 7.22917L44.9798 16.7422C45.5511 16.6454 46.3845 16.4889 46.9328 16.3764V1.61396C46.3615 1.49354 45.3223 1.30383 44.8223 1.22254L44.98 9.75971L44.9798 9.75988ZM11.3615 2.15994C10.635 2.15994 9.58686 2.39079 7.69119 3.02089V14.9723C9.35803 15.5157 10.6352 15.8333 11.3615 15.8333C13.0359 15.8333 13.9797 14.7315 13.9797 12.964V5.02876C13.9797 3.26173 13.0359 2.15994 11.3615 2.15994V2.15994ZM48.0643 4.19646C48.6306 4.30539 49.1883 4.42631 49.7316 4.55473V15.726C50.2316 15.6001 51.161 15.3393 51.78 15.1421V5.08222C52.3743 5.24828 52.9346 5.41384 53.4478 5.57191V3.41796C51.8303 2.81035 50.0941 2.31617 48.0645 1.86063V4.19663L48.0643 4.19646ZM36.3216 14.4575C36.3216 15.1494 36.1073 15.5082 35.2974 15.5332C34.4641 15.5593 34.2376 15.1749 34.2376 14.4575V3.54322C34.2376 2.82568 34.4641 2.42844 35.2974 2.45442C36.1073 2.48007 36.3216 2.85133 36.3216 3.54322V14.4575ZM11.9074 12.6568C11.9074 13.3487 11.5209 13.5789 11.0589 13.5789C10.6994 13.5789 10.1447 13.4385 9.69236 13.3049V4.68298C10.1447 4.55456 10.6995 4.41399 11.0589 4.41399C11.5207 4.41399 11.9074 4.64434 11.9074 5.33556V12.6567V12.6568ZM55.9053 4.47778C58.5068 5.79726 60 7.33361 60 8.97072C60 10.6258 58.507 12.1702 55.9053 13.4996V4.47778ZM0 8.97072C0 10.6233 1.4915 12.1707 4.09218 13.4971V4.48078C1.49167 5.79726 0 7.33411 0 8.97072V8.97072ZM28.1514 8.34362C28.1514 9.09714 27.9064 9.47906 26.9771 9.48156L26.1742 9.48355V2.57534C26.5317 2.55535 26.7219 2.54969 26.9369 2.54969C27.9414 2.54969 28.1514 2.95959 28.1514 3.72776V8.34362Z" fill="#E4001C"/>
</svg>
