<svg width="15" height="14" viewBox="0 0 15 14" fill="none" xmlns="http://www.w3.org/2000/svg">
<g clip-path="url(#clip0_188182_57507)">
<path d="M14.222 6.59688C12.7407 3.47656 10.5017 1.90625 7.50009 1.90625C4.49697 1.90625 2.25947 3.47656 0.778215 6.59844C0.718802 6.72425 0.687988 6.86165 0.687988 7.00078C0.687988 7.13991 0.718802 7.27732 0.778215 7.40312C2.25947 10.5234 4.49853 12.0938 7.50009 12.0938C10.5032 12.0938 12.7407 10.5234 14.222 7.40156C14.3423 7.14844 14.3423 6.85469 14.222 6.59688ZM7.50009 10.9688C4.97978 10.9688 3.13447 9.69063 1.8329 7C3.13447 4.30938 4.97978 3.03125 7.50009 3.03125C10.0204 3.03125 11.8657 4.30938 13.1673 7C11.8673 9.69063 10.022 10.9688 7.50009 10.9688ZM7.43759 4.25C5.91884 4.25 4.68759 5.48125 4.68759 7C4.68759 8.51875 5.91884 9.75 7.43759 9.75C8.95634 9.75 10.1876 8.51875 10.1876 7C10.1876 5.48125 8.95634 4.25 7.43759 4.25ZM7.43759 8.75C6.4704 8.75 5.68759 7.96719 5.68759 7C5.68759 6.03281 6.4704 5.25 7.43759 5.25C8.40478 5.25 9.18759 6.03281 9.18759 7C9.18759 7.96719 8.40478 8.75 7.43759 8.75Z" fill="black" fill-opacity="0.85"/>
</g>
<defs>
<clipPath id="clip0_188182_57507">
<rect width="14" height="14" fill="white" transform="translate(0.5)"/>
</clipPath>
</defs>
</svg>
